<?xml version="1.0" standalone="yes"?>
<svg xmlns="http://www.w3.org/2000/svg" width="88" height="92">
<path style="fill:#f59746; stroke:none;" d="M0 0L0 92L88 92L88 0L0 0z"/>
<path style="fill:#f9bd8a; stroke:none;" d="M53.6667 4.33334L54.3333 4.66666L53.6667 4.33334z"/>
<path style="fill:#fad1ae; stroke:none;" d="M55 4L56 5L55 4z"/>
<path style="fill:#fcdec4; stroke:none;" d="M53 5L53 6L58 5L53 5z"/>
<path style="fill:#fef7f1; stroke:none;" d="M41 25C29.2054 25 12.2443 25.6047 13.1088 42C13.3402 46.3886 18.8523 51.6035 18.2253 55.2546C17.8061 57.6956 14.4953 59.8641 13.2778 62.0147C9.833 68.0992 10.6927 75.5489 15.0548 80.8951C27.0229 95.5631 44.3444 82.0378 45 67C57.3044 67 73.5956 66.6893 72.956 50C72.7824 45.4708 68.0933 41.026 68.6219 37C69.9297 27.0396 80.3351 20.7906 70.6065 10.2137C58.1616 -3.31623 41.6328 10.4857 41 25z"/>
<path style="fill:#fcdec4; stroke:none;" d="M59 4L60 5L59 4z"/>
<path style="fill:#fad1ae; stroke:none;" d="M60 4L61 5L60 4z"/>
<path style="fill:#f9bd8a; stroke:none;" d="M61 4L61 5L64 5L61 4M49 7L52 6L49 7z"/>
<path style="fill:#fad1ae; stroke:none;" d="M52 5L53 6L52 5z"/>
<path style="fill:#fcdec4; stroke:none;" d="M61 5L61 6L64 6L61 5z"/>
<path style="fill:#fad1ae; stroke:none;" d="M64 5L65 6L64 5z"/>
<path style="fill:#f9bd8a; stroke:none;" d="M65 5L66 6L65 5z"/>
<path style="fill:#fad1ae; stroke:none;" d="M50 6L51 7L50 6z"/>
<path style="fill:#fcdec4; stroke:none;" d="M51 6L52 7L51 6M65 6L66 7L65 6z"/>
<path style="fill:#fad1ae; stroke:none;" d="M66 6L67 7L66 6z"/>
<path style="fill:#f9bd8a; stroke:none;" d="M67 6L69 8L67 6M47 7L43 12L47 7z"/>
<path style="fill:#fad1ae; stroke:none;" d="M48 7L49 8L48 7z"/>
<path style="fill:#fcdec4; stroke:none;" d="M67 7L68 8L67 7M47 8L48 9L47 8M57 8L57 9L60 9L57 8z"/>
<path style="fill:#fad1ae; stroke:none;" d="M69 8L70 9L69 8z"/>
<path style="fill:#fcdec4; stroke:none;" d="M46 9L47 10L46 9M53 9L54 10L53 9z"/>
<path style="fill:#f9bd8a; stroke:none;" d="M51 11L51 12L62 10L51 11z"/>
<path style="fill:#fad1ae; stroke:none;" d="M62 9L63 10L62 9z"/>
<path style="fill:#fcdec4; stroke:none;" d="M63 9L64 10L63 9z"/>
<path style="fill:#fad1ae; stroke:none;" d="M70 9L71 10L70 9z"/>
<path style="fill:#fcdec4; stroke:none;" d="M45 10L46 11L45 10M51 10L52 11L51 10z"/>
<path style="fill:#f59746; stroke:none;" d="M46 24L50 24C51.8206 7.65396 71.623 15.9402 64.9761 25.7863C57.7589 36.477 34.5768 26.5535 24.0432 31.2284C16.6321 34.5175 15.5175 45.2681 22.2137 49.9907C26.9416 53.3252 34.5271 52 40 52L40 49C35.9931 49 30.6805 49.8858 27.0193 47.9722C21.2186 44.9405 21.2668 38.1856 27.0193 35.179C38.6079 29.1222 67.8029 43.0043 70.5162 23C72.7905 6.23272 46.4299 6.13409 46 24z"/>
<path style="fill:#f9bd8a; stroke:none;" d="M63 10L64 11L63 10z"/>
<path style="fill:#fad1ae; stroke:none;" d="M64 10L65 11L64 10z"/>
<path style="fill:#fcdec4; stroke:none;" d="M65 10L70 15L65 10z"/>
<path style="fill:#fad1ae; stroke:none;" d="M71 10L72 11L71 10M44 11L45 12L44 11M50 11L51 12L50 11z"/>
<path style="fill:#f9bd8a; stroke:none;" d="M65 11L66 12L65 11M72 11L74 13L72 11z"/>
<path style="fill:#fad1ae; stroke:none;" d="M43 12L44 13L43 12z"/>
<path style="fill:#fcdec4; stroke:none;" d="M48 12L49 13L48 12z"/>
<path style="fill:#fad1ae; stroke:none;" d="M49 12L50 13L49 12z"/>
<path style="fill:#f9bd8a; stroke:none;" d="M66 12L67 13L66 12z"/>
<path style="fill:#fcdec4; stroke:none;" d="M72 12L73 13L72 12z"/>
<path style="fill:#f9bd8a; stroke:none;" d="M42 13L43 14L42 13z"/>
<path style="fill:#fcdec4; stroke:none;" d="M43 13L44 14L43 13z"/>
<path style="fill:#fad1ae; stroke:none;" d="M48 13L47 15L48 13z"/>
<path style="fill:#f9bd8a; stroke:none;" d="M56 13L56 14L60 14L56 13M67 13L68 14L67 13z"/>
<path style="fill:#fad1ae; stroke:none;" d="M73 13L74 14L73 13M42 14L43 15L42 14z"/>
<path style="fill:#f9bd8a; stroke:none;" d="M48 14L49 15L48 14M54 14L53 16L54 14z"/>
<path style="fill:#fad1ae; stroke:none;" d="M55 14L56 15L55 14z"/>
<path style="fill:#fcdec4; stroke:none;" d="M56 14L56 15L60 15L56 14z"/>
<path style="fill:#fad1ae; stroke:none;" d="M60 14L61 15L60 14z"/>
<path style="fill:#f9bd8a; stroke:none;" d="M61 14L61 15L64 16L61 14M68 14L69 15L68 14z"/>
<path style="fill:#fcdec4; stroke:none;" d="M73 14L74 15L73 14z"/>
<path style="fill:#f9bd8a; stroke:none;" d="M74 14L75 15L74 14z"/>
<path style="fill:#fcdec4; stroke:none;" d="M42 15L43 16L42 15M46 15L47 16L46 15z"/>
<path style="fill:#f9bd8a; stroke:none;" d="M47 15L48 16L47 15z"/>
<path style="fill:#fcdec4; stroke:none;" d="M54 15L55 16L54 15M62 15L63 16L62 15z"/>
<path style="fill:#fad1ae; stroke:none;" d="M69 15L70 16L69 15M74 15L75 16L74 15z"/>
<path style="fill:#f9bd8a; stroke:none;" d="M41 16L42 17L41 16z"/>
<path style="fill:#fad1ae; stroke:none;" d="M46 16L47 17L46 16M52 16L51 18L52 16z"/>
<path style="fill:#f9bd8a; stroke:none;" d="M64 16L66 18L64 16M69 16L70 17L69 16z"/>
<path style="fill:#fcdec4; stroke:none;" d="M70 16L71 17L70 16M74.3333 16.6667L74.6667 17.3333L74.3333 16.6667z"/>
<path style="fill:#f9bd8a; stroke:none;" d="M22.6667 17.3333L23.3333 17.6667L22.6667 17.3333z"/>
<path style="fill:#fad1ae; stroke:none;" d="M24 17L25 18L24 17z"/>
<path style="fill:#fcdec4; stroke:none;" d="M25 17L25 18L38 18L25 17z"/>
<path style="fill:#fad1ae; stroke:none;" d="M41 17L42 18L41 17z"/>
<path style="fill:#f9bd8a; stroke:none;" d="M46 17L47 18L46 17z"/>
<path style="fill:#fcdec4; stroke:none;" d="M52 17L53 18L52 17M64 17L65 18L64 17z"/>
<path style="fill:#fad1ae; stroke:none;" d="M70 17L71 18L70 17z"/>
<path style="fill:#f9bd8a; stroke:none;" d="M75.3333 17.6667L75.6667 18.3333L75.3333 17.6667M19 18L20 19L19 18z"/>
<path style="fill:#fad1ae; stroke:none;" d="M20.6667 18.3333L21.3333 18.6667L20.6667 18.3333z"/>
<path style="fill:#fcdec4; stroke:none;" d="M22.6667 18.3333L23.3333 18.6667L22.6667 18.3333z"/>
<path style="fill:#fef7f1; stroke:none;" d="M13 55C1.53776 33.1004 16.4369 21 38 21L38 18C26.7847 18 14.5062 17.8629 8.08873 29.0008C4.46959 35.282 1.87879 55.1752 13 55z"/>
<path style="fill:#f9bd8a; stroke:none;" d="M38.3333 18.6667L38.6667 19.3333L38.3333 18.6667M40 18L40 24L26 24L26 25C31.2975 25 43.5812 26.8452 40 18z"/>
<path style="fill:#fcdec4; stroke:none;" d="M41.3333 18.6667L41.6667 19.3333L41.3333 18.6667M45.3333 18.6667L45.6667 19.3333L45.3333 18.6667M51.3333 18.6667L51.6667 19.3333L51.3333 18.6667M56 18L55 20L56 18z"/>
<path style="fill:#fad1ae; stroke:none;" d="M57 18L57 19L62 21L57 18z"/>
<path style="fill:#fcdec4; stroke:none;" d="M60 18L61 19L60 18z"/>
<path style="fill:#fad1ae; stroke:none;" d="M65 18L66 19L65 18z"/>
<path style="fill:#f9bd8a; stroke:none;" d="M70.3333 18.6667L70.6667 19.3333L70.3333 18.6667M17 19L18 20L17 19z"/>
<path style="fill:#fad1ae; stroke:none;" d="M18 19L19 20L18 19z"/>
<path style="fill:#fcdec4; stroke:none;" d="M19 19L20 20L19 19z"/>
<path style="fill:#f9bd8a; stroke:none;" d="M50 19L51 20L50 19M56 19L55 25L61 24L61 23L56 24L56 19z"/>
<path style="fill:#f59746; stroke:none;" d="M57 19L56 24L61 23L57 19z"/>
<path style="fill:#f9bd8a; stroke:none;" d="M59 19L60 20L59 19z"/>
<path style="fill:#fcdec4; stroke:none;" d="M61 19L62 20L61 19M65 19L65 24L66 24L65 19z"/>
<path style="fill:#fad1ae; stroke:none;" d="M75.3333 19.6667L75.6667 20.3333L75.3333 19.6667z"/>
<path style="fill:#f9bd8a; stroke:none;" d="M15 20L14 22L15 20z"/>
<path style="fill:#fad1ae; stroke:none;" d="M16 20L17 21L16 20M45 20L45 24L46 24L45 20M50 20L51 21L50 20z"/>
<path style="fill:#f9bd8a; stroke:none;" d="M60 20L61 21L60 20M66 20L66 24L67 24L66 20z"/>
<path style="fill:#fcdec4; stroke:none;" d="M15 21L16 22L15 21M23 21L24 22L23 21z"/>
<path style="fill:#fad1ae; stroke:none;" d="M24.6667 21.3333L25.3333 21.6667L24.6667 21.3333z"/>
<path style="fill:#f9bd8a; stroke:none;" d="M26 21L26 22L38 22L26 21z"/>
<path style="fill:#fcdec4; stroke:none;" d="M50 21L50 25L51 25L50 21z"/>
<path style="fill:#f9bd8a; stroke:none;" d="M61 21L62 22L61 21z"/>
<path style="fill:#fcdec4; stroke:none;" d="M75.3333 21.6667L75.6667 22.3333L75.3333 21.6667z"/>
<path style="fill:#f9bd8a; stroke:none;" d="M12 22L9 26L12 22z"/>
<path style="fill:#fad1ae; stroke:none;" d="M13 22L14 23L13 22z"/>
<path style="fill:#fcdec4; stroke:none;" d="M20 22L21 23L20 22z"/>
<path style="fill:#fad1ae; stroke:none;" d="M21 22L22 23L21 22z"/>
<path style="fill:#f9bd8a; stroke:none;" d="M22 22L22 23L25 23L22 22z"/>
<path style="fill:#fad1ae; stroke:none;" d="M61 22L62 23L61 22M12 23L13 24L12 23z"/>
<path style="fill:#fcdec4; stroke:none;" d="M18 23L19 24L18 23z"/>
<path style="fill:#fad1ae; stroke:none;" d="M19 23L20 24L19 23z"/>
<path style="fill:#f9bd8a; stroke:none;" d="M20 23L21 24L20 23z"/>
<path style="fill:#fcdec4; stroke:none;" d="M61 23L62 24L61 23z"/>
<path style="fill:#fad1ae; stroke:none;" d="M75.3333 23.6667L75.6667 24.3333L75.3333 23.6667z"/>
<path style="fill:#fcdec4; stroke:none;" d="M11 24L12 25L11 24z"/>
<path style="fill:#fad1ae; stroke:none;" d="M17 24L18 25L17 24z"/>
<path style="fill:#f9bd8a; stroke:none;" d="M18 24L19 25L18 24z"/>
<path style="fill:#fad1ae; stroke:none;" d="M40 24L41 25L40 24z"/>
<path style="fill:#fcdec4; stroke:none;" d="M45 24L46 25L45 24z"/>
<path style="fill:#f9bd8a; stroke:none;" d="M46 24L46 25L50 25L46 24z"/>
<path style="fill:#fcdec4; stroke:none;" d="M60 24L61 25L60 24z"/>
<path style="fill:#fad1ae; stroke:none;" d="M65 24L66 25L65 24z"/>
<path style="fill:#f9bd8a; stroke:none;" d="M70 24L68 29L69 29L70 24z"/>
<path style="fill:#fad1ae; stroke:none;" d="M10 25L11 26L10 25z"/>
<path style="fill:#fcdec4; stroke:none;" d="M15 25L16 26L15 25z"/>
<path style="fill:#f9bd8a; stroke:none;" d="M16 25L17 26L16 25M22.6667 25.3333L23.3333 25.6667L22.6667 25.3333z"/>
<path style="fill:#fad1ae; stroke:none;" d="M24 25L25 26L24 25z"/>
<path style="fill:#fcdec4; stroke:none;" d="M25 25L26 26L25 25M64 25L65 26L64 25z"/>
<path style="fill:#f9bd8a; stroke:none;" d="M65 25L66 26L65 25z"/>
<path style="fill:#fcdec4; stroke:none;" d="M74 25L73 29L74 29L74 25z"/>
<path style="fill:#f9bd8a; stroke:none;" d="M75 25L76 26L75 25z"/>
<path style="fill:#fad1ae; stroke:none;" d="M9 26L10 27L9 26M14 26L15 27L14 26z"/>
<path style="fill:#f9bd8a; stroke:none;" d="M15 26L16 27L15 26M20 26L15 31L21 27L20 26z"/>
<path style="fill:#fad1ae; stroke:none;" d="M21 26L22 27L21 26z"/>
<path style="fill:#fcdec4; stroke:none;" d="M22.6667 26.3333L23.3333 26.6667L22.6667 26.3333z"/>
<path style="fill:#fad1ae; stroke:none;" d="M64 26L63 28L64 26M70 26L71 27L70 26z"/>
<path style="fill:#f9bd8a; stroke:none;" d="M8 27L9 28L8 27z"/>
<path style="fill:#fcdec4; stroke:none;" d="M13 27L12 29L13 27z"/>
<path style="fill:#f9bd8a; stroke:none;" d="M14 27L15 28L14 27z"/>
<path style="fill:#fcdec4; stroke:none;" d="M20 27L21 28L20 27M62 27L61 29L62 27z"/>
<path style="fill:#f9bd8a; stroke:none;" d="M64 27L65 28L64 27M7 28L8 29L7 28M13 28L14 29L13 28z"/>
<path style="fill:#fad1ae; stroke:none;" d="M18 28L19 29L18 28z"/>
<path style="fill:#f9bd8a; stroke:none;" d="M62 28L63 29L62 28z"/>
<path style="fill:#fad1ae; stroke:none;" d="M69 28L70 29L69 28z"/>
<path style="fill:#f9bd8a; stroke:none;" d="M74 28L75 29L74 28z"/>
<path style="fill:#fad1ae; stroke:none;" d="M7 29L8 30L7 29z"/>
<path style="fill:#f9bd8a; stroke:none;" d="M12 29L13 30L12 29z"/>
<path style="fill:#fcdec4; stroke:none;" d="M17 29L18 30L17 29M25 29L26 30L25 29z"/>
<path style="fill:#fad1ae; stroke:none;" d="M26.6667 29.3333L27.3333 29.6667L26.6667 29.3333z"/>
<path style="fill:#f9bd8a; stroke:none;" d="M28 29L28 30L61 30L28 29z"/>
<path style="fill:#fad1ae; stroke:none;" d="M68 29L69 30L68 29M73 29L74 30L73 29z"/>
<path style="fill:#f9bd8a; stroke:none;" d="M6 30L7 31L6 30z"/>
<path style="fill:#fad1ae; stroke:none;" d="M11 30L12 31L11 30z"/>
<path style="fill:#fcdec4; stroke:none;" d="M16 30L17 31L16 30M22 30L23 31L22 30z"/>
<path style="fill:#fad1ae; stroke:none;" d="M23 30L24 31L23 30z"/>
<path style="fill:#f9bd8a; stroke:none;" d="M24.6667 30.3333L25.3333 30.6667L24.6667 30.3333M67 30L64 32L64 33L68 31L67 30z"/>
<path style="fill:#fcdec4; stroke:none;" d="M68 30L69 31L68 30z"/>
<path style="fill:#f9bd8a; stroke:none;" d="M73 30L67 37L67 38L71 41L68 38L68 37L73 30z"/>
<path style="fill:#fad1ae; stroke:none;" d="M6 31L7 32L6 31z"/>
<path style="fill:#fcdec4; stroke:none;" d="M10 31L11 32L10 31z"/>
<path style="fill:#f9bd8a; stroke:none;" d="M11 31L12 32L11 31z"/>
<path style="fill:#fad1ae; stroke:none;" d="M15 31L16 32L15 31M21 31L22 32L21 31z"/>
<path style="fill:#f9bd8a; stroke:none;" d="M22 31L23 32L22 31z"/>
<path style="fill:#fcdec4; stroke:none;" d="M67 31L68 32L67 31z"/>
<path style="fill:#fad1ae; stroke:none;" d="M72 31L73 32L72 31z"/>
<path style="fill:#f9bd8a; stroke:none;" d="M5 32L6 33L5 32z"/>
<path style="fill:#fcdec4; stroke:none;" d="M6 32L7 33L6 32z"/>
<path style="fill:#fad1ae; stroke:none;" d="M10 32L11 33L10 32z"/>
<path style="fill:#f9bd8a; stroke:none;" d="M14 32L13 35L14 35L14 32z"/>
<path style="fill:#fcdec4; stroke:none;" d="M15 32L16 33L15 32M20 32L21 33L20 32z"/>
<path style="fill:#f9bd8a; stroke:none;" d="M21 32L22 33L21 32z"/>
<path style="fill:#fad1ae; stroke:none;" d="M65 32L66 33L65 32z"/>
<path style="fill:#fcdec4; stroke:none;" d="M71 32L72 33L71 32z"/>
<path style="fill:#fad1ae; stroke:none;" d="M5 33L6 34L5 33z"/>
<path style="fill:#fcdec4; stroke:none;" d="M9 33L10 34L9 33z"/>
<path style="fill:#f9bd8a; stroke:none;" d="M10 33L11 34L10 33z"/>
<path style="fill:#fad1ae; stroke:none;" d="M14 33L15 34L14 33M19 33L20 34L19 33z"/>
<path style="fill:#f9bd8a; stroke:none;" d="M62 33L63 34L62 33z"/>
<path style="fill:#fad1ae; stroke:none;" d="M63 33L64 34L63 33z"/>
<path style="fill:#fcdec4; stroke:none;" d="M70 33L71 34L70 33M5 34L5 37L6 37L5 34z"/>
<path style="fill:#fad1ae; stroke:none;" d="M9 34L10 35L9 34z"/>
<path style="fill:#fcdec4; stroke:none;" d="M14 34L15 35L14 34M18 34L19 35L18 34z"/>
<path style="fill:#f9bd8a; stroke:none;" d="M19 34L20 35L19 34M27.6667 34.3333L28.3333 34.6667L27.6667 34.3333z"/>
<path style="fill:#fad1ae; stroke:none;" d="M29 34L29 35L39 35L29 34z"/>
<path style="fill:#f9bd8a; stroke:none;" d="M39 34L39 35L59 35L39 34z"/>
<path style="fill:#fad1ae; stroke:none;" d="M59.6667 34.3333L60.3333 34.6667L59.6667 34.3333z"/>
<path style="fill:#fcdec4; stroke:none;" d="M61.6667 34.3333L62.3333 34.6667L61.6667 34.3333M69 34L70 35L69 34z"/>
<path style="fill:#f9bd8a; stroke:none;" d="M73 34L72 36L73 34z"/>
<path style="fill:#fad1ae; stroke:none;" d="M74 34L75 35L74 34z"/>
<path style="fill:#f9bd8a; stroke:none;" d="M75 34L79 38L75 34M4.33333 35.6667L4.66667 36.3333L4.33333 35.6667M9 35L9 38L10 38L9 35z"/>
<path style="fill:#fcdec4; stroke:none;" d="M13.3333 35.6667L13.6667 36.3333L13.3333 35.6667z"/>
<path style="fill:#f9bd8a; stroke:none;" d="M18 35L17 40L18 40L18 35M25 35L24 37L25 35z"/>
<path style="fill:#fad1ae; stroke:none;" d="M26 35L27 36L26 35z"/>
<path style="fill:#fcdec4; stroke:none;" d="M27.6667 35.3333L28.3333 35.6667L27.6667 35.3333M39 35L39 36L59 36L39 35M68 35L69 36L68 35M73 35L74 36L73 35z"/>
<path style="fill:#fef7f1; stroke:none;" d="M74 35C73.6745 40.3132 77.7541 44.5011 77.956 50C78.5621 66.5087 63.2964 71 50 71L50 74C56.7391 74 63.9793 74.4585 69.9961 70.8673C82.3077 63.519 85.557 44.4451 74 35z"/>
<path style="fill:#fcdec4; stroke:none;" d="M75 35L76 36L75 35z"/>
<path style="fill:#f9bd8a; stroke:none;" d="M12.3333 36.6667L12.6667 37.3333L12.3333 36.6667z"/>
<path style="fill:#fcdec4; stroke:none;" d="M17 36L18 37L17 36M25 36L26 37L25 36M67 36L68 37L67 36z"/>
<path style="fill:#fad1ae; stroke:none;" d="M72 36L73 37L72 36z"/>
<path style="fill:#fcdec4; stroke:none;" d="M76 36L77 37L76 36z"/>
<path style="fill:#fad1ae; stroke:none;" d="M4 37L5 38L4 37z"/>
<path style="fill:#fcdec4; stroke:none;" d="M8 37L9 38L8 37z"/>
<path style="fill:#f9bd8a; stroke:none;" d="M23 37L22 40L23 40L23 37z"/>
<path style="fill:#fcdec4; stroke:none;" d="M72 37L75 40L72 37z"/>
<path style="fill:#fad1ae; stroke:none;" d="M77 37L79 39L77 37z"/>
<path style="fill:#fcdec4; stroke:none;" d="M4.33333 38.6667L4.66667 39.3333L4.33333 38.6667z"/>
<path style="fill:#fad1ae; stroke:none;" d="M8.33333 38.6667L8.66667 39.3333L8.33333 38.6667M12 38L12 45L13 45L12 38M23 38L24 39L23 38z"/>
<path style="fill:#fcdec4; stroke:none;" d="M30 38L30 39L37 39L30 38M67 38L68 39L67 38z"/>
<path style="fill:#f9bd8a; stroke:none;" d="M72 38L73 39L72 38z"/>
<path style="fill:#fcdec4; stroke:none;" d="M77 38L78 39L77 38M23 39L24 40L23 39M27 39L28 40L27 39z"/>
<path style="fill:#fad1ae; stroke:none;" d="M28 39L27 41L28 39z"/>
<path style="fill:#f9bd8a; stroke:none;" d="M29 39L29 40L60 40L29 39z"/>
<path style="fill:#fad1ae; stroke:none;" d="M60 39L61 40L60 39z"/>
<path style="fill:#fcdec4; stroke:none;" d="M61 39L62 40L61 39M68 39L69 40L68 39z"/>
<path style="fill:#f9bd8a; stroke:none;" d="M73 39L74 40L73 39z"/>
<path style="fill:#fcdec4; stroke:none;" d="M78 39L79 40L78 39z"/>
<path style="fill:#f9bd8a; stroke:none;" d="M79 39L80 40L79 39M8 40L8 43L9 43L8 40z"/>
<path style="fill:#fad1ae; stroke:none;" d="M22 40L22 43L23 43L22 40z"/>
<path style="fill:#f59746; stroke:none;" d="M28 40L28 43C36.6872 43 51.114 40.2463 58.956 44.3179C64.0147 46.9444 65.3342 53.7557 59.8912 56.821C56.0539 58.982 50.249 58 46 58L46 62C51.6542 62 58.8827 63.1102 63.8912 59.9105C70.3511 55.7836 69.7056 44.8206 62.956 41.3179C54.2678 36.8091 37.6544 40 28 40z"/>
<path style="fill:#f9bd8a; stroke:none;" d="M61 40L62 41L61 40z"/>
<path style="fill:#fad1ae; stroke:none;" d="M62 40L63 41L62 40z"/>
<path style="fill:#fcdec4; stroke:none;" d="M63 40L64 41L63 40M69 40L70 41L69 40z"/>
<path style="fill:#fad1ae; stroke:none;" d="M74 40L75 41L74 40M79 40L80 41L79 40z"/>
<path style="fill:#fcdec4; stroke:none;" d="M26 41L27 42L26 41z"/>
<path style="fill:#f9bd8a; stroke:none;" d="M27 41L28 42L27 41z"/>
<path style="fill:#fad1ae; stroke:none;" d="M64 41L65 42L64 41z"/>
<path style="fill:#fcdec4; stroke:none;" d="M70 41L71 42L70 41z"/>
<path style="fill:#f9bd8a; stroke:none;" d="M74 41L76 43L74 41z"/>
<path style="fill:#fcdec4; stroke:none;" d="M75 41L76 42L75 41z"/>
<path style="fill:#f9bd8a; stroke:none;" d="M80 41L81 46L82 46L80 41M17 42L19 48L20 48L17 42z"/>
<path style="fill:#fad1ae; stroke:none;" d="M27 42L29 44L27 42z"/>
<path style="fill:#f9bd8a; stroke:none;" d="M65 42L66 43L65 42z"/>
<path style="fill:#fad1ae; stroke:none;" d="M71 42L72 43L71 42z"/>
<path style="fill:#fcdec4; stroke:none;" d="M76.3333 42.6667L76.6667 43.3333L76.3333 42.6667M4 43L5 44L4 43z"/>
<path style="fill:#fad1ae; stroke:none;" d="M8 43L9 44L8 43z"/>
<path style="fill:#f9bd8a; stroke:none;" d="M22 43L24 46L22 43z"/>
<path style="fill:#fcdec4; stroke:none;" d="M23 43L24 44L23 43M27 43L28 44L27 43z"/>
<path style="fill:#f9bd8a; stroke:none;" d="M29 43L29 44L58 44L29 43M66 43L67 44L66 43M72 43L73 44L72 43z"/>
<path style="fill:#fad1ae; stroke:none;" d="M80 43L81 44L80 43M4 44L5 45L4 44z"/>
<path style="fill:#fcdec4; stroke:none;" d="M8 44L9 45L8 44z"/>
<path style="fill:#f9bd8a; stroke:none;" d="M9 44L11 51L12 51L9 44z"/>
<path style="fill:#fad1ae; stroke:none;" d="M23 44L24 45L23 44z"/>
<path style="fill:#fcdec4; stroke:none;" d="M29 44L29 45L57 45L29 44z"/>
<path style="fill:#fad1ae; stroke:none;" d="M57.6667 44.3333L58.3333 44.6667L57.6667 44.3333z"/>
<path style="fill:#f9bd8a; stroke:none;" d="M59 44L59 45L63 47L59 44z"/>
<path style="fill:#fad1ae; stroke:none;" d="M67 44L68 45L67 44M72 44L73 45L72 44M76 44L77 45L76 44z"/>
<path style="fill:#fcdec4; stroke:none;" d="M80 44L81 45L80 44z"/>
<path style="fill:#f9bd8a; stroke:none;" d="M4.33333 45.6667L4.66667 46.3333L4.33333 45.6667z"/>
<path style="fill:#fcdec4; stroke:none;" d="M5 45L5 48L6 48L5 45z"/>
<path style="fill:#f9bd8a; stroke:none;" d="M12 45L13 46L12 45z"/>
<path style="fill:#fcdec4; stroke:none;" d="M13.3333 45.6667L13.6667 46.3333L13.3333 45.6667z"/>
<path style="fill:#fad1ae; stroke:none;" d="M17 45L18 46L17 45z"/>
<path style="fill:#fcdec4; stroke:none;" d="M60 45L61 46L60 45z"/>
<path style="fill:#f9bd8a; stroke:none;" d="M67 45L68 46L67 45z"/>
<path style="fill:#fcdec4; stroke:none;" d="M68 45L69 46L68 45M72 45L73 46L72 45z"/>
<path style="fill:#f9bd8a; stroke:none;" d="M73.3333 45.6667L73.6667 46.3333L73.3333 45.6667M76.3333 45.6667L76.6667 46.3333L76.3333 45.6667z"/>
<path style="fill:#fcdec4; stroke:none;" d="M77.3333 45.6667L77.6667 46.3333L77.3333 45.6667z"/>
<path style="fill:#f9bd8a; stroke:none;" d="M24 46L25 47L24 46z"/>
<path style="fill:#fcdec4; stroke:none;" d="M61 46L62 47L61 46z"/>
<path style="fill:#fad1ae; stroke:none;" d="M68 46L69 47L68 46M81 46L81 56L82 56L81 46M13 47L14 48L13 47z"/>
<path style="fill:#fcdec4; stroke:none;" d="M18 47L19 48L18 47z"/>
<path style="fill:#f9bd8a; stroke:none;" d="M25 47L28 49L28 48L25 47z"/>
<path style="fill:#fcdec4; stroke:none;" d="M26 47L27 48L26 47M62 47L63 48L62 47z"/>
<path style="fill:#f9bd8a; stroke:none;" d="M68 47L68 50L69 50L68 47z"/>
<path style="fill:#fcdec4; stroke:none;" d="M69.3333 47.6667L69.6667 48.3333L69.3333 47.6667z"/>
<path style="fill:#fad1ae; stroke:none;" d="M73 47L73 50L74 50L73 47M77 47L77 55L78 55L77 47M5 48L6 49L5 48z"/>
<path style="fill:#fcdec4; stroke:none;" d="M9 48L10 49L9 48z"/>
<path style="fill:#f9bd8a; stroke:none;" d="M13 48L15 50L13 48z"/>
<path style="fill:#fcdec4; stroke:none;" d="M14 48L15 49L14 48z"/>
<path style="fill:#fad1ae; stroke:none;" d="M19 48L20 49L19 48M28 48L28 49L40 49L28 48z"/>
<path style="fill:#fcdec4; stroke:none;" d="M40 48L41 49L40 48M45 48L46 49L45 48z"/>
<path style="fill:#fad1ae; stroke:none;" d="M45 49L45 50L57 49L45 49z"/>
<path style="fill:#fcdec4; stroke:none;" d="M57 48L58 49L57 48z"/>
<path style="fill:#f9bd8a; stroke:none;" d="M63.3333 48.6667L63.6667 49.3333L63.3333 48.6667M82 48L82 53L83 53L82 48M5 49L7 54L8 54L5 49z"/>
<path style="fill:#fcdec4; stroke:none;" d="M6 49L7 50L6 49z"/>
<path style="fill:#fad1ae; stroke:none;" d="M20 49L21 50L20 49z"/>
<path style="fill:#f9bd8a; stroke:none;" d="M40 49C37.1472 53.4004 30.7447 52 26 52L26 53C29.6427 53 41.3176 54.8664 40 49z"/>
<path style="fill:#f59746; stroke:none;" d="M46 49L46 52L58 52C55.3854 47.9671 50.386 49 46 49z"/>
<path style="fill:#f9bd8a; stroke:none;" d="M57 49L58 52L46 50L45 50C47.4399 53.7635 60.328 54.5182 57 49z"/>
<path style="fill:#fad1ae; stroke:none;" d="M58 49L59 50L58 49M69 49L69 53L70 53L69 49M6 50L7 51L6 50z"/>
<path style="fill:#fcdec4; stroke:none;" d="M10 50L11 51L10 50z"/>
<path style="fill:#fad1ae; stroke:none;" d="M15 50L16 51L15 50M21 50L22 51L21 50z"/>
<path style="fill:#f9bd8a; stroke:none;" d="M22 50L23 51L22 50z"/>
<path style="fill:#fad1ae; stroke:none;" d="M63.3333 50.6667L63.6667 51.3333L63.3333 50.6667z"/>
<path style="fill:#fcdec4; stroke:none;" d="M73.3333 50.6667L73.6667 51.3333L73.3333 50.6667z"/>
<path style="fill:#f9bd8a; stroke:none;" d="M74.3333 50.6667L74.6667 51.3333L74.3333 50.6667z"/>
<path style="fill:#fad1ae; stroke:none;" d="M11 51L12 52L11 51z"/>
<path style="fill:#f9bd8a; stroke:none;" d="M15 51L19 55L15 51z"/>
<path style="fill:#fcdec4; stroke:none;" d="M16 51L17 52L16 51M22 51L23 52L22 51z"/>
<path style="fill:#fad1ae; stroke:none;" d="M23 51L24 52L23 51z"/>
<path style="fill:#f9bd8a; stroke:none;" d="M24 51L25 52L24 51z"/>
<path style="fill:#fcdec4; stroke:none;" d="M7 52L8 53L7 52M11 52L13 54L11 52z"/>
<path style="fill:#f9bd8a; stroke:none;" d="M12 52L13 53L12 52z"/>
<path style="fill:#fcdec4; stroke:none;" d="M17 52L18 53L17 52M24 52L25 53L24 52z"/>
<path style="fill:#fad1ae; stroke:none;" d="M25 52L26 53L25 52M40 52L41 53L40 52z"/>
<path style="fill:#fcdec4; stroke:none;" d="M45 52L46 53L45 52M58 52L59 53L58 52z"/>
<path style="fill:#f9bd8a; stroke:none;" d="M63.3333 52.6667L63.6667 53.3333L63.3333 52.6667M68 52L68 55L69 55L68 52z"/>
<path style="fill:#fad1ae; stroke:none;" d="M73 52L73 55L74 55L73 52z"/>
<path style="fill:#f9bd8a; stroke:none;" d="M13 53L14 54L13 53z"/>
<path style="fill:#fcdec4; stroke:none;" d="M18 53L19 54L18 53M69.3333 53.6667L69.6667 54.3333L69.3333 53.6667z"/>
<path style="fill:#fad1ae; stroke:none;" d="M8 54L9 55L8 54M13 54L14 55L13 54M19 54L20 55L19 54z"/>
<path style="fill:#fcdec4; stroke:none;" d="M62 54L63 55L62 54z"/>
<path style="fill:#f9bd8a; stroke:none;" d="M76.3333 54.6667L76.6667 55.3333L76.3333 54.6667z"/>
<path style="fill:#fcdec4; stroke:none;" d="M9 55L9 56L13 56L13 55L9 55z"/>
<path style="fill:#f9bd8a; stroke:none;" d="M13 55L14 56L13 55z"/>
<path style="fill:#fad1ae; stroke:none;" d="M18 55L17 57L18 55M61 55L60 57L61 55z"/>
<path style="fill:#f9bd8a; stroke:none;" d="M62 55L63 56L62 55z"/>
<path style="fill:#fad1ae; stroke:none;" d="M68 55L69 56L68 55z"/>
<path style="fill:#f9bd8a; stroke:none;" d="M73.3333 55.6667L73.6667 56.3333L73.3333 55.6667z"/>
<path style="fill:#fcdec4; stroke:none;" d="M77.3333 55.6667L77.6667 56.3333L77.3333 55.6667z"/>
<path style="fill:#f9bd8a; stroke:none;" d="M9 56L10 57L9 56M12 56L13 57L12 56M16 56L13 60L16 56z"/>
<path style="fill:#fcdec4; stroke:none;" d="M18 56L19 57L18 56M58.6667 56.3333L59.3333 56.6667L58.6667 56.3333z"/>
<path style="fill:#f9bd8a; stroke:none;" d="M61 56L62 57L61 56M67 56L68 57L67 56z"/>
<path style="fill:#fcdec4; stroke:none;" d="M68 56L69 57L68 56M72 56L73 57L72 56z"/>
<path style="fill:#fad1ae; stroke:none;" d="M76.3333 56.6667L76.6667 57.3333L76.3333 56.6667z"/>
<path style="fill:#f9bd8a; stroke:none;" d="M81 56L80 61L81 61L81 56M10.6667 57.3333L11.3333 57.6667L10.6667 57.3333z"/>
<path style="fill:#fcdec4; stroke:none;" d="M16 57L17 58L16 57M24 57L24 58L41 58L24 57M46 57L46 58L56 58L46 57z"/>
<path style="fill:#fad1ae; stroke:none;" d="M56.6667 57.3333L57.3333 57.6667L56.6667 57.3333z"/>
<path style="fill:#f9bd8a; stroke:none;" d="M58.6667 57.3333L59.3333 57.6667L58.6667 57.3333z"/>
<path style="fill:#fcdec4; stroke:none;" d="M67 57L68 58L67 57z"/>
<path style="fill:#fad1ae; stroke:none;" d="M72 57L73 58L72 57z"/>
<path style="fill:#fcdec4; stroke:none;" d="M80 57L81 58L80 57z"/>
<path style="fill:#fad1ae; stroke:none;" d="M15 58L16 59L15 58z"/>
<path style="fill:#fcdec4; stroke:none;" d="M22 58L23 59L22 58z"/>
<path style="fill:#f9bd8a; stroke:none;" d="M23 58L24 59L23 58z"/>
<path style="fill:#f59746; stroke:none;" d="M40 68C34.6254 69.7778 35.3443 77.2814 28.9961 78.2384C21.7454 79.3316 17.4875 70.3153 22.348 65.2284C26.7286 60.6437 34.2502 62 40 62L40 58C35.4653 58 30.4705 57.4134 26 58.2284C1.61758 62.6732 27.675 96.8262 38.5432 75.9815C39.8581 73.4596 39.9349 70.7687 40 68z"/>
<path style="fill:#f9bd8a; stroke:none;" d="M40 58L40 62L25 62L25 63C29.1486 63 42.3308 65.1129 40 58M45 58L45 61L46 61L45 58z"/>
<path style="fill:#fad1ae; stroke:none;" d="M66 58L67 59L66 58z"/>
<path style="fill:#f9bd8a; stroke:none;" d="M72 58L73 59L72 58z"/>
<path style="fill:#fcdec4; stroke:none;" d="M76 58L77 59L76 58z"/>
<path style="fill:#fad1ae; stroke:none;" d="M80 58L81 59L80 58M14 59L15 60L14 59z"/>
<path style="fill:#fcdec4; stroke:none;" d="M20 59L21 60L20 59z"/>
<path style="fill:#f9bd8a; stroke:none;" d="M21 59L22 60L21 59z"/>
<path style="fill:#fad1ae; stroke:none;" d="M65 59L64 61L65 59z"/>
<path style="fill:#f9bd8a; stroke:none;" d="M71 59L72 60L71 59z"/>
<path style="fill:#fad1ae; stroke:none;" d="M75 59L76 60L75 59M13 60L14 61L13 60M19 60L17 63L19 60z"/>
<path style="fill:#f9bd8a; stroke:none;" d="M20 60L21 61L20 60M63 60L60 61L60 62L64 61L63 60z"/>
<path style="fill:#fcdec4; stroke:none;" d="M65 60L66 61L65 60M70 60L67 64L70 60z"/>
<path style="fill:#f9bd8a; stroke:none;" d="M74 60L75 61L74 60z"/>
<path style="fill:#fcdec4; stroke:none;" d="M75 60L76 61L75 60M79 60L80 61L79 60z"/>
<path style="fill:#f9bd8a; stroke:none;" d="M12 61L13 62L12 61z"/>
<path style="fill:#fcdec4; stroke:none;" d="M13 61L14 62L13 61z"/>
<path style="fill:#f9bd8a; stroke:none;" d="M19 61L20 62L19 61z"/>
<path style="fill:#fad1ae; stroke:none;" d="M45 61L46 62L45 61z"/>
<path style="fill:#fcdec4; stroke:none;" d="M63 61L64 62L63 61z"/>
<path style="fill:#f9bd8a; stroke:none;" d="M70 61L71 62L70 61z"/>
<path style="fill:#fad1ae; stroke:none;" d="M74 61L75 62L74 61M79 61L80 62L79 61z"/>
<path style="fill:#fcdec4; stroke:none;" d="M12 62L13 63L12 62z"/>
<path style="fill:#f9bd8a; stroke:none;" d="M18 62L19 63L18 62z"/>
<path style="fill:#fcdec4; stroke:none;" d="M40 62L41 63L40 62M45 62L46 63L45 62z"/>
<path style="fill:#f9bd8a; stroke:none;" d="M46 62L46 63L59 63L46 62z"/>
<path style="fill:#fad1ae; stroke:none;" d="M59 62L60 63L59 62z"/>
<path style="fill:#fcdec4; stroke:none;" d="M60 62L61 63L60 62z"/>
<path style="fill:#f9bd8a; stroke:none;" d="M69 62L70 63L69 62M73 62L69 67L73 62z"/>
<path style="fill:#fcdec4; stroke:none;" d="M78 62L77 64L78 62z"/>
<path style="fill:#f9bd8a; stroke:none;" d="M79 62L80 63L79 62M11 63L11 78L12 78L11 63M17 63L18 64L17 63M23 63L21 66L23 63z"/>
<path style="fill:#fcdec4; stroke:none;" d="M24 63L25 64L24 63z"/>
<path style="fill:#f9bd8a; stroke:none;" d="M68 63L69 64L68 63z"/>
<path style="fill:#fcdec4; stroke:none;" d="M73 63L74 64L73 63z"/>
<path style="fill:#f9bd8a; stroke:none;" d="M78 63L76 67L78 63z"/>
<path style="fill:#fad1ae; stroke:none;" d="M16 64L17 65L16 64z"/>
<path style="fill:#fcdec4; stroke:none;" d="M23 64L24 65L23 64M65 64L66 65L65 64z"/>
<path style="fill:#fad1ae; stroke:none;" d="M66 64L67 65L66 64z"/>
<path style="fill:#f9bd8a; stroke:none;" d="M67 64L68 65L67 64z"/>
<path style="fill:#fcdec4; stroke:none;" d="M72 64L73 65L72 64z"/>
<path style="fill:#fad1ae; stroke:none;" d="M77 64L78 65L77 64z"/>
<path style="fill:#fcdec4; stroke:none;" d="M11.3333 65.6667L11.6667 66.3333L11.3333 65.6667M15.3333 65.6667L15.6667 66.3333L15.3333 65.6667z"/>
<path style="fill:#f9bd8a; stroke:none;" d="M16 65L17 66L16 65z"/>
<path style="fill:#fcdec4; stroke:none;" d="M22 65L23 66L22 65M63 65L64 66L63 65z"/>
<path style="fill:#fad1ae; stroke:none;" d="M64 65L65 66L64 65z"/>
<path style="fill:#f9bd8a; stroke:none;" d="M65 65L66 66L65 65z"/>
<path style="fill:#fcdec4; stroke:none;" d="M71 65L72 66L71 65M76 65L77 66L76 65M21 66L22 67L21 66M61 66L62 67L61 66z"/>
<path style="fill:#fad1ae; stroke:none;" d="M62 66L63 67L62 66z"/>
<path style="fill:#f9bd8a; stroke:none;" d="M63 66L64 67L63 66z"/>
<path style="fill:#fcdec4; stroke:none;" d="M70 66L71 67L70 66z"/>
<path style="fill:#fad1ae; stroke:none;" d="M15 67L16 68L15 67z"/>
<path style="fill:#f9bd8a; stroke:none;" d="M20 67L19 72L20 72L20 67z"/>
<path style="fill:#fcdec4; stroke:none;" d="M25 67L26 68L25 67z"/>
<path style="fill:#fad1ae; stroke:none;" d="M26 67L27 68L26 67z"/>
<path style="fill:#f9bd8a; stroke:none;" d="M27 67L27 68L31 69L27 67z"/>
<path style="fill:#fcdec4; stroke:none;" d="M31 67L32 68L31 67M35.3333 67.6667L35.6667 68.3333L35.3333 67.6667z"/>
<path style="fill:#f9bd8a; stroke:none;" d="M36 69L40 68L40 73C41.2291 69.7649 39.1076 65.5732 36 69z"/>
<path style="fill:#fad1ae; stroke:none;" d="M40 67L41 68L40 67z"/>
<path style="fill:#fcdec4; stroke:none;" d="M45 67L46 68L45 67z"/>
<path style="fill:#f9bd8a; stroke:none;" d="M46 67L46 68L60 68L46 67M67 67L68 68L67 67z"/>
<path style="fill:#fad1ae; stroke:none;" d="M68 67L69 68L68 67z"/>
<path style="fill:#fcdec4; stroke:none;" d="M69 67L70 68L69 67M74 67L72 70L74 67z"/>
<path style="fill:#f9bd8a; stroke:none;" d="M75 67L76 68L75 67z"/>
<path style="fill:#fcdec4; stroke:none;" d="M14 68L14 72L15 72L14 68z"/>
<path style="fill:#f9bd8a; stroke:none;" d="M15 68L15 72L16 72L15 68z"/>
<path style="fill:#fcdec4; stroke:none;" d="M20.3333 68.6667L20.6667 69.3333L20.3333 68.6667z"/>
<path style="fill:#f9bd8a; stroke:none;" d="M25 68L26 69L25 68z"/>
<path style="fill:#f59746; stroke:none;" d="M25 72L29 73L31 69C27.57 68.2163 26.1357 68.5778 25 72z"/>
<path style="fill:#fad1ae; stroke:none;" d="M31 68L31 71L32 71L31 68M45 68L46 69L45 68z"/>
<path style="fill:#f9bd8a; stroke:none;" d="M65 68L66 69L65 68z"/>
<path style="fill:#fad1ae; stroke:none;" d="M66 68L67 69L66 68z"/>
<path style="fill:#fcdec4; stroke:none;" d="M67 68L68 69L67 68z"/>
<path style="fill:#f9bd8a; stroke:none;" d="M74 68L75 69L74 68z"/>
<path style="fill:#fcdec4; stroke:none;" d="M24 69L24 72L25 72L24 69z"/>
<path style="fill:#fad1ae; stroke:none;" d="M35 69L35 73L36 73L35 69z"/>
<path style="fill:#f9bd8a; stroke:none;" d="M45 69L45 74L46 74L45 69M60 69L60 70L64 70L60 69z"/>
<path style="fill:#fad1ae; stroke:none;" d="M64 69L65 70L64 69z"/>
<path style="fill:#fcdec4; stroke:none;" d="M65 69L66 70L65 69z"/>
<path style="fill:#f9bd8a; stroke:none;" d="M73 69L74 70L73 69M30 70L29 73L30 70M49.3333 70.6667L49.6667 71.3333L49.3333 70.6667z"/>
<path style="fill:#fad1ae; stroke:none;" d="M50 70L50 71L61 71L50 70z"/>
<path style="fill:#fcdec4; stroke:none;" d="M61.6667 70.3333L62.3333 70.6667L61.6667 70.3333M70 70L69 72L70 70z"/>
<path style="fill:#fad1ae; stroke:none;" d="M71 70L72 71L71 70z"/>
<path style="fill:#f9bd8a; stroke:none;" d="M72 70L73 71L72 70z"/>
<path style="fill:#fcdec4; stroke:none;" d="M20 71L21 72L20 71M31 71L32 72L31 71z"/>
<path style="fill:#f9bd8a; stroke:none;" d="M70 71L71 72L70 71z"/>
<path style="fill:#fad1ae; stroke:none;" d="M15.3333 72.6667L15.6667 73.3333L15.3333 72.6667M20 72L21 73L20 72M25 72L25 73L29 74L29 73L25 72z"/>
<path style="fill:#f9bd8a; stroke:none;" d="M26 72L27 73L26 72z"/>
<path style="fill:#fcdec4; stroke:none;" d="M30 72L31 73L30 72M44 72L44 75L45 75L44 72z"/>
<path style="fill:#fad1ae; stroke:none;" d="M49 72L49 75L50 75L49 72z"/>
<path style="fill:#fcdec4; stroke:none;" d="M67 72L68 73L67 72z"/>
<path style="fill:#f9bd8a; stroke:none;" d="M68.6667 72.3333L69.3333 72.6667L68.6667 72.3333M20 73L21 74L20 73z"/>
<path style="fill:#fcdec4; stroke:none;" d="M29 73L30 74L29 73M34 73L35 74L34 73z"/>
<path style="fill:#f9bd8a; stroke:none;" d="M35 73L36 74L35 73z"/>
<path style="fill:#fad1ae; stroke:none;" d="M40 73L41 74L40 73z"/>
<path style="fill:#f9bd8a; stroke:none;" d="M48.3333 73.6667L48.6667 74.3333L48.3333 73.6667z"/>
<path style="fill:#fcdec4; stroke:none;" d="M62 73L62 74L65 74L62 73z"/>
<path style="fill:#fad1ae; stroke:none;" d="M65 73L66 74L65 73z"/>
<path style="fill:#f9bd8a; stroke:none;" d="M66.6667 73.3333L67.3333 73.6667L66.6667 73.3333z"/>
<path style="fill:#fcdec4; stroke:none;" d="M11 74L12 75L11 74M15 74L17 77L15 74M21 74L23 76L21 74z"/>
<path style="fill:#fad1ae; stroke:none;" d="M34 74L35 75L34 74z"/>
<path style="fill:#f9bd8a; stroke:none;" d="M39 74L40 75L39 74z"/>
<path style="fill:#fcdec4; stroke:none;" d="M40 74L41 75L40 74M50 74L50 75L61 75L50 74z"/>
<path style="fill:#fad1ae; stroke:none;" d="M61.6667 74.3333L62.3333 74.6667L61.6667 74.3333z"/>
<path style="fill:#f9bd8a; stroke:none;" d="M63.6667 74.3333L64.3333 74.6667L63.6667 74.3333z"/>
<path style="fill:#fad1ae; stroke:none;" d="M11 75L12 76L11 75z"/>
<path style="fill:#f9bd8a; stroke:none;" d="M16 75L17 76L16 75M21 75L22 76L21 75z"/>
<path style="fill:#fcdec4; stroke:none;" d="M33 75L34 76L33 75z"/>
<path style="fill:#f9bd8a; stroke:none;" d="M34 75L35 76L34 75z"/>
<path style="fill:#fad1ae; stroke:none;" d="M39 75L40 76L39 75M44 75L45 76L44 75z"/>
<path style="fill:#f9bd8a; stroke:none;" d="M22 76L25 78L25 77L22 76z"/>
<path style="fill:#fad1ae; stroke:none;" d="M23 76L24 77L23 76M32 76L33 77L32 76z"/>
<path style="fill:#f9bd8a; stroke:none;" d="M33 76L34 77L33 76M38 76L39 77L38 76z"/>
<path style="fill:#fcdec4; stroke:none;" d="M39 76L40 77L39 76M43 76L44 77L43 76z"/>
<path style="fill:#f9bd8a; stroke:none;" d="M44 76L35 86L35 87C39.1006 84.8713 44.6846 81.14 44 76z"/>
<path style="fill:#fcdec4; stroke:none;" d="M12 77L13 78L12 77z"/>
<path style="fill:#f9bd8a; stroke:none;" d="M17 77L21 81L17 77z"/>
<path style="fill:#fad1ae; stroke:none;" d="M25 77L26 78L25 77z"/>
<path style="fill:#fcdec4; stroke:none;" d="M26 77L26 78L30 78L26 77z"/>
<path style="fill:#fad1ae; stroke:none;" d="M30 77L31 78L30 77z"/>
<path style="fill:#f9bd8a; stroke:none;" d="M31.6667 77.3333L32.3333 77.6667L31.6667 77.3333z"/>
<path style="fill:#fad1ae; stroke:none;" d="M38 77L39 78L38 77M43 77L44 78L43 77M12 78L13 79L12 78z"/>
<path style="fill:#fcdec4; stroke:none;" d="M17 78L18 79L17 78z"/>
<path style="fill:#f9bd8a; stroke:none;" d="M26 78L26 79L30 79L26 78M37 78L38 79L37 78z"/>
<path style="fill:#fcdec4; stroke:none;" d="M13 79L17 83L13 79M18 79L19 80L18 79z"/>
<path style="fill:#f9bd8a; stroke:none;" d="M36 79L37 80L36 79z"/>
<path style="fill:#fad1ae; stroke:none;" d="M42 79L43 80L42 79z"/>
<path style="fill:#f9bd8a; stroke:none;" d="M13 80L14 81L13 80z"/>
<path style="fill:#fcdec4; stroke:none;" d="M19 80L20 81L19 80z"/>
<path style="fill:#fad1ae; stroke:none;" d="M35 80L36 81L35 80z"/>
<path style="fill:#fcdec4; stroke:none;" d="M36 80L37 81L36 80M41 80L42 81L41 80z"/>
<path style="fill:#f9bd8a; stroke:none;" d="M14 81L15 82L14 81z"/>
<path style="fill:#fcdec4; stroke:none;" d="M20 81L21 82L20 81z"/>
<path style="fill:#fad1ae; stroke:none;" d="M21 81L22 82L21 81z"/>
<path style="fill:#f9bd8a; stroke:none;" d="M22 81L22 82L34 82L34 81L22 81z"/>
<path style="fill:#fad1ae; stroke:none;" d="M34 81L35 82L34 81z"/>
<path style="fill:#fcdec4; stroke:none;" d="M40 81L41 82L40 81z"/>
<path style="fill:#fad1ae; stroke:none;" d="M15 82L16 83L15 82z"/>
<path style="fill:#fcdec4; stroke:none;" d="M22 82L23 83L22 82z"/>
<path style="fill:#fad1ae; stroke:none;" d="M23 82L24 83L23 82M32 82L33 83L32 82z"/>
<path style="fill:#fcdec4; stroke:none;" d="M39 82L40 83L39 82z"/>
<path style="fill:#f9bd8a; stroke:none;" d="M16 83L17 84L16 83z"/>
<path style="fill:#fcdec4; stroke:none;" d="M38 83L39 84L38 83z"/>
<path style="fill:#f9bd8a; stroke:none;" d="M17 84L19 86L17 84z"/>
<path style="fill:#fcdec4; stroke:none;" d="M18 84L19 85L18 84M37 84L38 85L37 84z"/>
<path style="fill:#fad1ae; stroke:none;" d="M19 85L20 86L19 85z"/>
<path style="fill:#fcdec4; stroke:none;" d="M20 85L21 86L20 85M35 85L36 86L35 85z"/>
<path style="fill:#f9bd8a; stroke:none;" d="M20 86L21 87L20 86z"/>
<path style="fill:#fad1ae; stroke:none;" d="M21 86L22 87L21 86z"/>
<path style="fill:#fcdec4; stroke:none;" d="M22 86L22 87L30 88L30 87L22 86M31 86L31 87L34 87L31 86z"/>
<path style="fill:#fad1ae; stroke:none;" d="M34 86L35 87L34 86z"/>
<path style="fill:#f9bd8a; stroke:none;" d="M23 87L24 88L23 87z"/>
<path style="fill:#fad1ae; stroke:none;" d="M24 87L25 88L24 87M30.6667 87.3333L31.3333 87.6667L30.6667 87.3333z"/>
<path style="fill:#f9bd8a; stroke:none;" d="M32 87L33 88L32 87z"/>
</svg>
